# xmcd
#
# Track frame offsets: 
#        150
#        13789
#        28536
#        43403
#        57798
#        72524
#        85903
#        99515
#        113239
#        127082
#        142221
#        154632
#        166591
#        180889
#        194602
#        208368
#        221734
#        235249
#        248517
#        261920
#        275539
#        288926
#
# Disc length: 4033 seconds
#
# Revision: 0
# Processed by: cddbd v1.5.2PL0 Copyright (c) Steve Scherf et al.
# Submitted via: ExactAudioCopyFreeDBPlugin 1.0
#
DISCID=4b0fbf16
DTITLE=Rev. J. C. Burnett - Complete Recorded Works Vol. 1 (1926-1927)
DYEAR=1997
DGENRE=Gospel
TTITLE0=The Downfall of Nebuchadnezzar
TTITLE1=I've Even Heard of Thee
TTITLE2=Drive and Go Forward
TTITLE3=Go Wash in Jordan Seven Times
TTITLE4=Hebrew Children in the Fiery Furnace
TTITLE5=Christians' Home
TTITLE6=Daniel in the Lion's Den
TTITLE7=Lord Help Me
TTITLE8=It's Your Time Now but My Time After Awhile
TTITLE9=The Gospel Train Is Leaving
TTITLE10=The Downfall of Nebuchadnezzar
TTITLE11=The Downfall of Nebuchadnezzar
TTITLE12=I've Even Heard of Thee
TTITLE13=Jesus of Nazareth, King of the Jews
TTITLE14=This Thing Was Not Done in the Corner
TTITLE15=I Will Stay Here and Send the News in Town
TTITLE16=Stand Your Ground
TTITLE17=The Great Day of This Wrath Has Come
TTITLE18=Preach the Word
TTITLE19=I'll Just Stand and Ring My Hands and Cry
TTITLE20=True Friendship
TTITLE21=The Christians' Trouble Is Ended
EXTD=
EXTT0=
EXTT1=
EXTT2=
EXTT3=
EXTT4=
EXTT5=
EXTT6=
EXTT7=
EXTT8=
EXTT9=
EXTT10=
EXTT11=
EXTT12=
EXTT13=
EXTT14=
EXTT15=
EXTT16=
EXTT17=
EXTT18=
EXTT19=
EXTT20=
EXTT21=
PLAYORDER=
